<svg xmlns="http://www.w3.org/2000/svg" viewBox="0 0 505.66 506.26"><defs><style>.cls-1{fill:#ff6100;}.cls-2{fill:#00bf4d;}</style></defs><g id="Layer_2" data-name="Layer 2"><g id="Layer_1-2" data-name="Layer 1"><path class="cls-1" d="M265.39,240.06v.06H141.45A115.81,115.81,0,0,0,95.7,252.89a117.14,117.14,0,0,0-46.47,43.66c-.12.18-.18.42-.3.6-.6,1-1.14,1.86-1.68,2.82-.66,1.2-1.26,2.39-1.92,3.59-.66,1.38-1.38,2.7-2,4.14a14.42,14.42,0,0,0-.66,1.38c-.6,1.32-1.14,2.58-1.68,3.9-.18.54-.42,1.08-.6,1.62-.72,1.86-1.38,3.77-2,5.63-.48,1.44-.9,2.88-1.32,4.38A117.27,117.27,0,0,0,54.8,425.17c.48.6.9,1.2,1.38,1.86,1,1.32,2.1,2.64,3.18,4,.54.66,1.08,1.25,1.62,1.91s1.2,1.44,1.86,2.1c1.26,1.38,2.52,2.76,3.84,4.08a116.48,116.48,0,0,0,198.71-76.75v-95.4h.06V240.06Zm-26.14,90.85a14.09,14.09,0,0,1-.06,1.56v23.8A89.22,89.22,0,0,1,152.9,445.5c-1,.06-2,.06-3.06.06A89.29,89.29,0,0,1,148.71,267a7.52,7.52,0,0,1,1.13-.06,8,8,0,0,1,1.2.06h23.63a2.46,2.46,0,0,1,.66-.06h63.92v60.14c0,.6.06,1.26.06,1.92S239.25,330.25,239.25,330.91Z"/><circle class="cls-1" cx="28.53" cy="477.73" r="28.53"/><path class="cls-2" d="M240.27,266.2v-.06H364.21A115.81,115.81,0,0,0,410,253.37a117.27,117.27,0,0,0,46.48-43.65c.12-.19.18-.42.3-.6.6-1,1.14-1.86,1.68-2.82.65-1.2,1.25-2.4,1.91-3.6.66-1.38,1.38-2.7,2-4.14a14.42,14.42,0,0,0,.66-1.38c.6-1.32,1.14-2.58,1.68-3.89.18-.54.42-1.08.6-1.62.72-1.86,1.38-3.78,2-5.64.48-1.44.9-2.88,1.32-4.38A117.17,117.17,0,0,0,450.86,81.09c-.48-.6-.9-1.2-1.38-1.85-1-1.32-2.1-2.64-3.18-4-.54-.66-1.08-1.26-1.62-1.92s-1.2-1.44-1.86-2.1c-1.25-1.38-2.51-2.76-3.83-4.08a116.49,116.49,0,0,0-198.72,76.76v95.4h-.06V266.2Zm26.14-90.84a14.09,14.09,0,0,1,.06-1.56V150a89.21,89.21,0,0,1,86.29-89.22c1-.06,2-.06,3.06-.06A89.29,89.29,0,0,1,357,239.28a7.65,7.65,0,0,1-1.14.06,8,8,0,0,1-1.2-.06H331a2.46,2.46,0,0,1-.66.06H266.41V179.19c0-.6-.06-1.26-.06-1.92S266.41,176,266.41,175.36Z"/><circle class="cls-2" cx="477.13" cy="28.53" r="28.53"/></g></g></svg>