<svg xmlns="http://www.w3.org/2000/svg" viewBox="0 0 975.15 392.74"><defs><style>.cls-1{fill:#fff;}</style></defs><g id="Layer_2" data-name="Layer 2"><g id="Layer_1-2" data-name="Layer 1"><path class="cls-1" d="M0,5.85H46.62c32.12,0,50.24,16.42,50.24,43.23,0,16.91-8.46,30-21.74,37.2,16.18,5.8,27.54,20,27.54,40.58,0,30.43-22,48.07-51,48.07H0ZM48.79,79c16.91,0,28-11.35,28-28.5,0-16.66-9.9-27.29-28-27.29H19.56V79Zm-.48,78.75c20,0,34.06-9.67,34.06-31.4,0-22.23-14.74-30.92-34.3-30.92H19.56v62.32Z"/><path class="cls-1" d="M258.37,161.4l72-95.65H260.54V49.32h92.27V63.09l-71.73,95.65H354v16.19H258.37Z"/><path class="cls-1" d="M429.12,5.85h19.57V80h89.85V5.85h19.57V174.93H538.54V97.87H448.69v77.06H429.12Z"/><path class="cls-1" d="M646.27,46.18c37,0,59.67,26.57,59.67,64.25,0,.73,0,3.39-.25,5.8H605c.24,28,19.08,44.93,45.17,44.93,21.25,0,33.09-11.11,39.13-19.57l12.56,9.18c-7,11.84-23.43,27.3-51.93,27.3-38.17,0-64.5-26.81-64.5-65.46C585.4,72.51,612.94,46.18,646.27,46.18Zm40.1,55.8c-1.21-26.09-19.32-39.37-40.1-39.37-20.53,0-38.89,15.7-40.33,39.37Z"/><path class="cls-1" d="M730.32,0H749.4V174.64H730.32Z"/><path class="cls-1" d="M866.49,48.74c-1.29,0-2.58,0-3.86.09a84.82,84.82,0,0,0-61.52,30.58c-.25.29-.5.59-.73.89v-31H782V199.05H236.68V89.71h-.06V49h-19v60.59c0,.26,0,.52,0,.78,0,.51,0,1,0,1.51-.89,25.08-16.5,42.93-37.87,45.27a37.47,37.47,0,0,1-9,0c-21.8-2.39-37.62-20.91-37.93-46.78,0-.26,0-.52,0-.78V49h-19v60.54c0,2.51.11,5,.31,7.37,1.48,17.24,8.16,31.73,18.66,41.84h0c10.3,9.93,24.27,15.65,40.61,15.65.61,0,1.2,0,1.8,0s1.19,0,1.8,0c16.31,0,30.28-5.7,40.57-15.61l0-.05v40.3h0v0H146.44a84.39,84.39,0,0,0-33.33,9.3,85.42,85.42,0,0,0-33.82,31.78l-.26.45c-.4.68-.81,1.36-1.19,2.05-.48.86-1,1.73-1.4,2.61s-1,2-1.46,3c-.16.34-.32.68-.47,1-.42.94-.83,1.89-1.21,2.85-.16.39-.31.78-.46,1.16-.52,1.36-1,2.73-1.47,4.12-.35,1-.67,2.09-1,3.15a85.32,85.32,0,0,0,12.93,73.22c.33.46.66.9,1,1.35h0c.75,1,1.52,1.94,2.3,2.89l1.19,1.41c.44.51.89,1,1.35,1.52.91,1,1.85,2,2.81,2.95A84.82,84.82,0,0,0,236.68,288V218.6H782V369.52h19.09V218.6h71.15a85,85,0,0,0-5.77-169.86ZM217.64,265.16c0,.38,0,.76,0,1.14v17.34a65,65,0,0,1-62.82,65c-.73,0-1.47,0-2.21,0a65,65,0,0,1-.84-130h18.91l.46,0,1.4,0,1.4,0h43.76v43.76c0,.47,0,.93,0,1.4S217.65,264.69,217.64,265.16ZM867,199.05H801.11V134a65,65,0,0,1,62.82-65c.73,0,1.47,0,2.21,0a65,65,0,0,1,.84,130Z"/><path class="cls-1" d="M83.33,333.79A84.9,84.9,0,0,1,70.4,260.57a85.32,85.32,0,0,0,12.93,73.22Z"/><path class="cls-1" d="M72.84,253.3c-.52,1.36-1,2.73-1.47,4.12C71.81,256,72.3,254.66,72.84,253.3Z"/><circle class="cls-1" cx="63.88" cy="371.97" r="20.77"/><circle class="cls-1" cx="954.38" cy="45.92" r="20.77"/></g></g></svg>